<svg width="110" height="110" viewBox="0 0 110 110" fill="none" xmlns="http://www.w3.org/2000/svg">
<circle cx="55" cy="55" r="55" fill="#2B2B2B"/>
<path fill-rule="evenodd" clip-rule="evenodd" d="M66.9368 81.7025C70.6338 79.164 73.335 75.7101 75.5174 71.8343C68.8186 78.443 63.189 85.2337 51.9727 80.3207C58.3844 80.1637 67.8308 74.7309 72.328 70.4707C63.3371 75.1244 51.9444 84.6116 40.397 75.4213C48.79 77.7413 61.7728 70.7584 68.8152 67.4216C58.3596 69.7644 43.1536 80.2547 31.5778 67.6434C41.1497 72.3529 57.9425 65.2812 67.3324 62.8543C54.4366 64.0029 35.7178 70.6117 25.061 53.8698C34.6837 61.5407 56.1104 58.5701 66.4519 57.5045C44.6703 56.7084 25.6204 58.8761 16 28C41.1372 69.1833 77.3507 26.542 85 76.5779C78.3746 69.521 76.824 79.8294 66.9379 81.7025H66.9368Z" fill="#EDEDED"/>
</svg>
